<?xml version="1.0" standalone="no"?>
<!DOCTYPE svg PUBLIC "-//W3C//DTD SVG 20010904//EN"
 "http://www.w3.org/TR/2001/REC-SVG-20010904/DTD/svg10.dtd">
<svg version="1.0" xmlns="http://www.w3.org/2000/svg"
 width="700.000000pt" height="700.000000pt" viewBox="0 0 700.000000 700.000000"
 preserveAspectRatio="xMidYMid meet">
<metadata>
Created by potrace 1.14, written by Peter Selinger 2001-2017
</metadata>
<g transform="translate(0.000000,700.000000) scale(0.100000,-0.100000)"
fill="#000000" stroke="none">
<path d="M4014 6916 c-53 -27 -193 -168 -299 -301 -61 -76 -197 -277 -216
-319 -7 -14 -17 -26 -23 -27 -32 -2 -128 0 -130 3 -56 83 -200 231 -289 297
-96 71 -319 178 -407 196 -8 2 -35 8 -60 15 -25 7 -56 14 -70 16 -14 2 -34 6
-45 8 -97 21 -439 28 -575 12 -274 -31 -706 -134 -806 -191 -49 -29 -90 -101
-93 -165 -1 -30 11 -82 38 -160 49 -143 79 -226 96 -265 57 -132 76 -173 123
-264 29 -57 51 -107 50 -111 -2 -4 -50 -44 -108 -90 -219 -172 -471 -454 -607
-681 -200 -333 -322 -711 -360 -1114 -15 -158 -8 -565 11 -685 3 -14 7 -47 11
-75 8 -70 42 -233 70 -340 43 -165 120 -402 136 -419 5 -6 9 -15 9 -22 0 -17
108 -268 176 -410 31 -65 58 -121 58 -124 1 -3 4 -9 7 -15 4 -5 23 -41 44 -80
80 -149 100 -183 163 -285 511 -831 1133 -1278 1787 -1283 86 -1 243 9 266 17
8 3 30 7 49 10 71 9 238 59 347 102 110 44 112 45 144 29 66 -34 258 -98 364
-121 195 -42 422 -49 590 -19 17 3 39 7 50 9 107 19 293 84 410 144 90 45 286
170 337 214 15 13 46 39 70 58 114 92 335 329 448 479 14 18 30 38 35 44 21
23 192 284 242 367 129 216 277 510 368 735 20 50 40 99 45 110 37 78 162 476
175 557 3 18 10 53 15 78 74 340 85 742 30 1100 -98 638 -421 1200 -924 1602
-401 322 -879 531 -1468 644 -18 3 -102 16 -186 28 l-153 21 20 25 c89 115
151 187 221 258 90 92 112 133 113 205 0 152 -163 252 -299 183z"/>
</g>
</svg>
